:SAMPLES-PER-SECOND 30
:FULLY-SPECIFIED
:DEGREES
174
root  -0.587789 31.8604 4.44082 146.186 -54.8774 -152.965
RightUpLeg  -24.3436 -17.2102 14.9102
RightLeg  72.1911 1.50521 4.3364
RightFoot  -27.3087 0.106483 2.06517
RightToes  5.82063e-011 0 -3.6325e-017
Spine  27.6609 5.19328 7.40344
Spine1  6.26344 6.5627 3.45138
HEad  -24.7947 27.4557 -12.425
LeftShoulder1  2.3521 -4.51455 -23.0739
LeftArm  -18.9319 15.8468 -51.2011
LeftForeArm  -42.0971 -39.5395 -11.2573
LeftHand  1.18807 11.0001 24.4405
RightShoulder  2.39827 4.7544 22.8461
RightArm  -6.97799 -12.2033 50.5324
RightForeArm  -34.8484 33.5874 9.11634
RightHand  -1.59552 -0.513617 -36.9397
LeftUpLeg  -26.3391 -20.0421 6.68121
LeftLeg  83.3468 1.81631 23.8415
LeftFoot  -26.6356 -2.30556 -18.1913
LeftToes  3.99265e-010 -1.33173e-010 6.75004e-011
175
root  -0.121488 32.6024 4.84483 144.757 -61.9479 -150.856
RightUpLeg  -25.6192 -15.2347 13.3671
RightLeg  68.7252 -0.290013 -1.54784
RightFoot  -25.0218 0.498149 5.71251
RightToes  5.82063e-011 0 -3.6325e-017
Spine  29.3665 4.67765 6.86025
Spine1  6.12916 5.85938 4.00252
HEad  -25.4235 21.8734 -13.5322
LeftShoulder1  2.401 -5.24813 -21.0848
LeftArm  -8.27372 9.14017 -54.5351
LeftForeArm  -33.2767 -49.5216 -15.2212
LeftHand  0.498735 8.68316 18.2099
RightShoulder  2.05823 4.32666 19.9021
RightArm  -6.79756 -6.42568 51.3152
RightForeArm  -21.8349 42.9268 11.7537
RightHand  -1.74993 0.251253 -35.1345
LeftUpLeg  -27.7681 -19.7835 5.53372
LeftLeg  78.4629 3.08229 19.3145
LeftFoot  -26.326 -1.36318 -11.4436
LeftToes  3.99265e-010 -1.33173e-010 6.75004e-011
176
root  0.371244 33.6785 5.14457 145.118 -69.7868 -150.367
RightUpLeg  -27.0057 -10.963 10.728
RightLeg  65.4954 -4.60879 -11.465
RightFoot  -19.7983 0.668676 10.9964
RightToes  5.82063e-011 0 -3.6325e-017
Spine  30.9418 4.09013 4.7423
Spine1  5.12978 4.74011 4.11101
HEad  -24.4928 17.4857 -12.4484
LeftShoulder1  2.18491 -5.77397 -16.8465
LeftArm  -5.05047 4.15975 -54.2254
LeftForeArm  -17.2664 -62.3843 -24.4574
LeftHand  0.179151 7.21051 12.7499
RightShoulder  1.70401 3.71896 16.9916
RightArm  -12.7353 -4.53096 48.8009
RightForeArm  -10.4439 55.9269 17.9849
RightHand  -1.63024 0.301805 -32.615
LeftUpLeg  -28.8186 -17.8198 3.37062
LeftLeg  71.5317 2.49129 9.68271
LeftFoot  -23.7734 -0.46026 -5.4559
LeftToes  3.99265e-010 -1.33173e-010 6.75004e-011
177
root  0.862641 34.9008 5.39944 143.808 -78.2167 -147.959
RightUpLeg  -29.0141 -5.70692 7.18571
RightLeg  64.2438 -11.7366 -25.2498
RightFoot  -10.7693 -0.045252 10.3141
RightToes  5.82063e-011 0 -3.6325e-017
Spine  32.7882 2.60537 2.30732
Spine1  3.6831 2.76295 3.37824
HEad  -24.4978 14.074 -11.4547
LeftShoulder1  1.71771 -5.26868 -12.482
LeftArm  -10.4362 1.84362 -49.3591
LeftForeArm  9.92674 -74.2323 -47.2807
LeftHand  0.0471665 6.12975 10.3329
RightShoulder  1.40827 3.05808 14.6645
RightArm  -21.5895 -6.38694 44.0033
RightForeArm  -1.70067 67.7894 30.045
RightHand  -1.58041 0.301213 -31.6843
LeftUpLeg  -29.7236 -14.5123 0.772082
LeftLeg  63.7554 -1.49105 -2.61366
LeftFoot  -18.6764 -0.290845 -7.07063
LeftToes  3.99265e-010 -1.33173e-010 6.75004e-011
178
root  1.20265 36.0176 5.63193 154.74 -86.4305 -157.087
RightUpLeg  -31.5362 -0.637543 3.79436
RightLeg  63.8762 -16.697 -33.1055
RightFoot  -2.86082 -0.393756 4.44306
RightToes  5.82063e-011 0 -3.6325e-017
Spine  34.2243 0.65523 0.770069
Spine1  1.27802 0.370254 3.25711
HEad  -24.4954 11.1437 -11.2368
LeftShoulder1  1.31313 -3.93471 -10.4189
LeftArm  -20.4105 2.78844 -41.221
LeftForeArm  42.4019 -78.3391 -81.8103
LeftHand  -0.0374556 5.36315 14.5855
RightShoulder  1.22235 2.51442 13.4069
RightArm  -30.628 -11.2046 36.9077
RightForeArm  4.26166 73.4222 43.9299
RightHand  -1.88831 1.00772 -33.5032
LeftUpLeg  -30.5502 -10.6675 -1.2183
LeftLeg  57.4241 -4.37538 -7.0597
LeftFoot  -14.2343 -0.347801 -16.3692
LeftToes  3.99265e-010 -1.33173e-010 6.75004e-011
179
root  1.30953 36.895 5.86599 19.8943 -86.8612 -20.0796
RightUpLeg  -33.7731 3.90373 1.63726
RightLeg  61.1244 -14.5134 -26.6786
RightFoot  -1.80512 -0.606689 7.77084
RightToes  5.82063e-011 0 -3.6325e-017
Spine  35.1719 -0.528378 -0.0216099
Spine1  -2.26135 -1.11893 4.05132
HEad  -23.1455 8.46914 -11.3671
LeftShoulder1  1.16469 -2.84125 -11.1674
LeftArm  -29.4764 6.50553 -32.9461
LeftForeArm  37.1457 -77.9352 -79.2105
LeftHand  -0.27063 4.13153 24.1566
RightShoulder  1.19099 2.28965 13.6707
RightArm  -37.8303 -17.9416 28.341
RightForeArm  -3.64978 72.7357 43.3241
RightHand  -2.39389 2.03874 -36.4522
LeftUpLeg  -31.2354 -6.87132 -2.32909
LeftLeg  54.0647 0.159434 0.784936
LeftFoot  -12.9626 -0.218813 -20.3955
LeftToes  3.99265e-010 -1.33173e-010 6.75004e-011
180
root  1.22331 37.2644 6.12146 -15.0254 -82.9881 16.2387
RightUpLeg  -35.0267 6.85334 0.470938
RightLeg  57.4155 -5.5168 -9.65556
RightFoot  -5.29857 -1.20258 21.5857
RightToes  5.82063e-011 0 -3.6325e-017
Spine  35.7294 -0.784595 -1.12596
Spine1  -5.42131 -1.49124 4.61914
HEad  -21.468 6.13723 -11.7396
LeftShoulder1  1.15799 -2.32929 -12.8009
LeftArm  -35.3278 11.805 -27.5138
LeftForeArm  5.57845 -73.8471 -47.116
LeftHand  -0.231829 4.52583 33.5644
RightShoulder  1.23668 2.21048 14.8701
RightArm  -42.4832 -24.5094 21.5322
RightForeArm  -21.0945 67.4303 31.6513
RightHand  -2.69166 2.4732 -38.5756
LeftUpLeg  -31.9639 -4.03385 -3.19119
LeftLeg  55.4838 8.92063 14.2751
LeftFoot  -11.6772 0.00468572 -11.9562
LeftToes  3.99265e-010 -1.33173e-010 6.75004e-011
181
root  1.01078 37.073 6.41093 -17.8425 -79.114 19.7072
RightUpLeg  -35.1413 7.39245 0.791524
RightLeg  55.6644 1.5216 2.04012
RightFoot  -6.41315 -1.22058 27.0011
RightToes  5.82063e-011 0 -3.6325e-017
Spine  35.5247 -1.12477 -2.06858
Spine1  -6.49724 -1.95895 4.90782
HEad  -20.9555 4.11055 -12.1997
LeftShoulder1  1.10807 -1.91123 -13.4772
LeftArm  -39.0537 17.4464 -26.3234
LeftForeArm  -16.3165 -63.7719 -25.5027
LeftHand  0.522424 6.80085 39.7101
RightShoulder  1.25612 2.07111 15.8494
RightArm  -45.3126 -28.9561 19.2998
RightForeArm  -35.7698 58.1044 21.0683
RightHand  -2.62631 2.14803 -39.1811
LeftUpLeg  -32.3785 -2.93144 -3.37258
LeftLeg  58.4179 12.9852 22.0239
LeftFoot  -8.69223 0.135503 -2.78758
LeftToes  3.99265e-010 -1.33173e-010 6.75004e-011
182
root  0.738583 36.7346 6.72219 -16.8623 -74.9461 19.6283
RightUpLeg  -34.4153 6.70019 2.33743
RightLeg  54.5612 0.0421199 -0.299994
RightFoot  -6.57081 -0.81955 17.4334
RightToes  5.82063e-011 0 -3.6325e-017
Spine  34.5021 -1.85747 -1.78
Spine1  -6.07952 -2.89526 5.49463
HEad  -21.3023 1.82444 -12.0872
LeftShoulder1  1.08308 -1.67346 -13.9897
LeftArm  -41.8365 21.924 -28.3219
LeftForeArm  -28.6669 -51.8073 -16.1272
LeftHand  1.63433 9.35948 44.5434
RightShoulder  1.29388 2.06508 16.6168
RightArm  -46.4001 -31.2479 20.7587
RightForeArm  -44.6415 45.5916 13.7109
RightHand  -2.40802 1.42393 -39.7083
LeftUpLeg  -32.1246 -3.2033 -2.75238
LeftLeg  57.9381 12.0706 20.369
LeftFoot  -7.061 0.193389 -4.15018
LeftToes  3.99265e-010 -1.33173e-010 6.75004e-011
183
root  0.413325 36.1773 7.0564 -16.8372 -70.9733 20.7705
RightUpLeg  -34.5274 7.32304 2.68476
RightLeg  56.1225 -6.4686 -10.8092
RightFoot  -10.0654 -0.112239 4.12318
RightToes  5.82063e-011 0 -3.6325e-017
Spine  33.2439 -2.22562 -1.08186
Spine1  -5.89451 -3.21606 5.22477
HEad  -21.6505 -1.49527 -11.2106
LeftShoulder1  1.33741 -2.31519 -16.1788
LeftArm  -43.5392 24.2764 -31.1164
LeftForeArm  -37.0805 -40.3691 -11.3364
LeftHand  2.69334 11.3535 48.4365
RightShoulder  1.45478 2.40861 18.0949
RightArm  -45.5082 -32.8436 23.7093
RightForeArm  -49.5769 33.286 9.41242
RightHand  -2.13514 0.362253 -41.5688
LeftUpLeg  -31.8499 -2.86545 -2.80089
LeftLeg  56.3714 9.07518 14.8406
LeftFoot  -9.90319 0.185635 -12.4092
LeftToes  3.99265e-010 -1.33173e-010 6.75004e-011
184
root  0.103286 35.3639 7.46986 -18.758 -67.5658 22.8671
RightUpLeg  -35.6206 9.51795 0.956679
RightLeg  61.6291 -9.71386 -19.1612
RightFoot  -14.5272 -0.00194065 2.23556
RightToes  5.82063e-011 0 -3.6325e-017
Spine  32.4224 -2.15689 0.00910613
Spine1  -5.55148 -2.507 3.09396
HEad  -22.0209 -6.0763 -10.4553
LeftShoulder1  1.89661 -3.65435 -20.024
LeftArm  -42.4082 24.107 -33.9479
LeftForeArm  -43.7145 -30.8627 -8.59076
LeftHand  3.38419 12.713 49.4179
RightShoulder  1.69825 2.90655 20.1486
RightArm  -43.6291 -33.921 28.6587
RightForeArm  -53.1619 25.2606 7.27047
RightHand  -1.74269 -0.928597 -43.5473
LeftUpLeg  -31.4451 -0.561488 -4.47387
LeftLeg  57.1881 5.91761 10.3135
LeftFoot  -15.7276 -0.502777 -16.374
LeftToes  3.99265e-010 -1.33173e-010 6.75004e-011
185
root  -0.169305 34.5847 7.92836 -19.5704 -63.4344 21.9408
RightUpLeg  -35.6262 10.5387 -0.832744
RightLeg  67.7952 -8.04831 -21.3238
RightFoot  -16.7024 0.304101 9.08654
RightToes  5.82063e-011 0 -3.6325e-017
Spine  31.5765 -2.54548 2.43308
Spine1  -3.34026 -1.9445 0.756103
HEad  -22.0777 -11.4762 -10.6146
LeftShoulder1  2.5046 -4.78979 -23.9967
LeftArm  -35.7378 20.9453 -37.645
LeftForeArm  -51.749 -24.3152 -7.16922
LeftHand  3.70208 13.9166 46.8202
RightShoulder  1.84489 3.18031 21.3421
RightArm  -41.0958 -32.3246 36.6096
RightForeArm  -55.6775 21.1852 5.74748
RightHand  -1.41843 -1.78611 -43.8909
LeftUpLeg  -30.6794 2.19079 -6.5115
LeftLeg  60.844 3.24684 6.90416
LeftFoot  -19.8754 -0.852848 -12.9629
LeftToes  3.99265e-010 -1.33173e-010 6.75004e-011
186
root  -0.451607 34.0074 8.36125 -18.6869 -57.0325 17.6017
RightUpLeg  -33.3992 9.10089 -1.1696
RightLeg  73.0304 -6.28532 -23.1284
RightFoot  -15.6514 0.478879 15.686
RightToes  5.82063e-011 0 -3.6325e-017
Spine  29.6546 -3.78269 5.57794
Spine1  0.266627 -2.64461 0.602713
HEad  -20.5579 -17.0741 -11.4351
LeftShoulder1  3.01803 -5.60521 -27.0446
LeftArm  -23.6814 15.3686 -42.1649
LeftForeArm  -61.6243 -21.1477 -6.95346
LeftHand  3.59825 14.7632 41.9008
RightShoulder  1.80012 3.09148 21.0027
RightArm  -36.905 -26.9083 45.073
RightForeArm  -56.5089 18.7253 5.14215
RightHand  -1.37648 -1.80265 -42.9246
LeftUpLeg  -29.4703 2.75583 -7.49943
LeftLeg  65.7206 1.07107 3.35391
LeftFoot  -19.7868 -0.511696 -8.40625
LeftToes  3.99265e-010 -1.33173e-010 6.75004e-011
